<svg width="172" height="44" viewBox="0 0 172 44" fill="none" xmlns="http://www.w3.org/2000/svg">
<rect x="0.488235" y="0.488235" width="171.024" height="43.0235" rx="6.34706" stroke="black" stroke-width="0.976471"/>
<path d="M10.98 22.92C10.98 21.7067 11.1947 20.5213 11.624 19.364C12.0533 18.188 12.6787 17.124 13.5 16.172C14.34 15.2013 15.3573 14.436 16.552 13.876C17.7467 13.2973 19.1 13.008 20.612 13.008C22.404 13.008 23.9533 13.4187 25.26 14.24C26.5667 15.0427 27.5373 16.0787 28.172 17.348L25.708 19C25.3347 18.1973 24.8587 17.5627 24.28 17.096C23.72 16.6293 23.104 16.3027 22.432 16.116C21.7787 15.9293 21.1347 15.836 20.5 15.836C19.4547 15.836 18.54 16.0507 17.756 16.48C16.972 16.8907 16.3093 17.4413 15.768 18.132C15.2453 18.8227 14.844 19.5973 14.564 20.456C14.3027 21.3147 14.172 22.1733 14.172 23.032C14.172 23.984 14.3307 24.908 14.648 25.804C14.9653 26.6813 15.404 27.4653 15.964 28.156C16.5427 28.828 17.224 29.36 18.008 29.752C18.792 30.144 19.6507 30.34 20.584 30.34C21.2187 30.34 21.8813 30.228 22.572 30.004C23.2627 29.78 23.8973 29.4347 24.476 28.968C25.0733 28.4827 25.54 27.848 25.876 27.064L28.48 28.548C28.0693 29.5373 27.4253 30.3773 26.548 31.068C25.6893 31.7587 24.7187 32.2813 23.636 32.636C22.572 32.9907 21.5173 33.168 20.472 33.168C19.072 33.168 17.7933 32.8787 16.636 32.3C15.4787 31.7027 14.48 30.9187 13.64 29.948C12.8 28.9587 12.1467 27.8573 11.68 26.644C11.2133 25.412 10.98 24.1707 10.98 22.92ZM37.5413 33.28C36.3839 33.28 35.3479 33.084 34.4333 32.692C33.5186 32.2813 32.7253 31.7213 32.0533 31.012C31.3999 30.3027 30.8959 29.5 30.5413 28.604C30.1866 27.6893 30.0093 26.7187 30.0093 25.692C30.0093 24.6653 30.1866 23.6947 30.5413 22.78C30.8959 21.8653 31.3999 21.0627 32.0533 20.372C32.7253 19.6627 33.5186 19.112 34.4333 18.72C35.3666 18.3093 36.4026 18.104 37.5413 18.104C38.6799 18.104 39.7066 18.3093 40.6213 18.72C41.5546 19.112 42.3479 19.6627 43.0013 20.372C43.6733 21.0627 44.1866 21.8653 44.5413 22.78C44.8959 23.6947 45.0733 24.6653 45.0733 25.692C45.0733 26.7187 44.8959 27.6893 44.5413 28.604C44.1866 29.5 43.6733 30.3027 43.0013 31.012C42.3479 31.7213 41.5546 32.2813 40.6213 32.692C39.7066 33.084 38.6799 33.28 37.5413 33.28ZM33.1733 25.72C33.1733 26.6533 33.3693 27.4933 33.7613 28.24C34.1533 28.9867 34.6759 29.5747 35.3293 30.004C35.9826 30.4333 36.7199 30.648 37.5413 30.648C38.3439 30.648 39.0719 30.4333 39.7253 30.004C40.3973 29.556 40.9293 28.9587 41.3213 28.212C41.7133 27.4467 41.9093 26.6067 41.9093 25.692C41.9093 24.7587 41.7133 23.9187 41.3213 23.172C40.9293 22.4253 40.3973 21.8373 39.7253 21.408C39.0719 20.96 38.3439 20.736 37.5413 20.736C36.7199 20.736 35.9826 20.96 35.3293 21.408C34.6759 21.856 34.1533 22.4533 33.7613 23.2C33.3693 23.928 33.1733 24.768 33.1733 25.72ZM46.881 25.692C46.881 24.292 47.161 23.0227 47.721 21.884C48.2997 20.7267 49.0837 19.812 50.073 19.14C51.0624 18.4493 52.201 18.104 53.489 18.104C54.609 18.104 55.617 18.3933 56.513 18.972C57.4277 19.5507 58.137 20.2693 58.641 21.128V12.56H61.721V29.528C61.721 29.8827 61.7864 30.1347 61.917 30.284C62.0477 30.4333 62.2624 30.5173 62.561 30.536V33C61.9824 33.0933 61.5344 33.14 61.217 33.14C60.6384 33.14 60.1437 32.972 59.733 32.636C59.341 32.3 59.1357 31.8987 59.117 31.432L59.089 30.34C58.529 31.2733 57.773 32.0013 56.821 32.524C55.869 33.028 54.8797 33.28 53.853 33.28C52.845 33.28 51.9117 33.084 51.053 32.692C50.213 32.3 49.4757 31.7493 48.841 31.04C48.225 30.3307 47.7397 29.5187 47.385 28.604C47.049 27.6893 46.881 26.7187 46.881 25.692ZM58.641 27.736V23.9C58.4357 23.3027 58.0997 22.7707 57.633 22.304C57.185 21.8187 56.6717 21.436 56.093 21.156C55.533 20.876 54.973 20.736 54.413 20.736C53.7597 20.736 53.1624 20.876 52.621 21.156C52.0984 21.436 51.641 21.8093 51.249 22.276C50.8757 22.7427 50.5864 23.2747 50.381 23.872C50.1757 24.4693 50.073 25.0947 50.073 25.748C50.073 26.42 50.185 27.0547 50.409 27.652C50.633 28.2307 50.9504 28.7533 51.361 29.22C51.7904 29.668 52.2757 30.0227 52.817 30.284C53.377 30.5267 53.9837 30.648 54.637 30.648C55.0477 30.648 55.4584 30.5733 55.869 30.424C56.2984 30.2747 56.6997 30.0693 57.073 29.808C57.465 29.5467 57.7917 29.2387 58.053 28.884C58.333 28.5293 58.529 28.1467 58.641 27.736ZM72.2692 33.28C71.1305 33.28 70.0945 33.084 69.1612 32.692C68.2465 32.2813 67.4532 31.7307 66.7812 31.04C66.1092 30.3307 65.5865 29.528 65.2132 28.632C64.8585 27.7173 64.6812 26.7467 64.6812 25.72C64.6812 24.3387 64.9985 23.0787 65.6332 21.94C66.2678 20.7827 67.1545 19.8587 68.2932 19.168C69.4318 18.4587 70.7665 18.104 72.2972 18.104C73.8278 18.104 75.1438 18.4587 76.2452 19.168C77.3652 19.8587 78.2332 20.7733 78.8492 21.912C79.4652 23.0507 79.7732 24.2733 79.7732 25.58C79.7732 25.804 79.7638 26.0187 79.7452 26.224C79.7265 26.4107 79.7078 26.5693 79.6892 26.7H67.9572C68.0132 27.5587 68.2465 28.3147 68.6572 28.968C69.0865 29.6027 69.6278 30.1067 70.2812 30.48C70.9345 30.8347 71.6345 31.012 72.3812 31.012C73.2025 31.012 73.9772 30.8067 74.7052 30.396C75.4518 29.9853 75.9558 29.444 76.2172 28.772L78.8492 29.528C78.5318 30.2373 78.0465 30.8813 77.3932 31.46C76.7585 32.02 76.0025 32.468 75.1252 32.804C74.2478 33.1213 73.2958 33.28 72.2692 33.28ZM67.8732 24.656H76.7212C76.6652 23.816 76.4225 23.0787 75.9932 22.444C75.5825 21.7907 75.0505 21.2867 74.3972 20.932C73.7625 20.5587 73.0532 20.372 72.2692 20.372C71.5038 20.372 70.7945 20.5587 70.1412 20.932C69.5065 21.2867 68.9838 21.7907 68.5732 22.444C68.1625 23.0787 67.9292 23.816 67.8732 24.656ZM98.1648 27.876C98.1648 28.94 97.8848 29.8547 97.3248 30.62C96.7834 31.3853 96.0461 31.9733 95.1128 32.384C94.1794 32.7947 93.1528 33 92.0328 33H82.5408V13.12H92.7888C93.7221 13.12 94.5248 13.372 95.1968 13.876C95.8874 14.3613 96.4101 14.996 96.7648 15.78C97.1381 16.5453 97.3248 17.348 97.3248 18.188C97.3248 19.1587 97.0728 20.0733 96.5688 20.932C96.0834 21.772 95.3834 22.3973 94.4688 22.808C95.6074 23.144 96.5034 23.76 97.1568 24.656C97.8288 25.5333 98.1648 26.6067 98.1648 27.876ZM94.9448 27.288C94.9448 26.728 94.8234 26.224 94.5808 25.776C94.3568 25.3093 94.0394 24.936 93.6288 24.656C93.2368 24.3573 92.7701 24.208 92.2288 24.208H85.6768V30.284H92.0328C92.5928 30.284 93.0874 30.1533 93.5168 29.892C93.9648 29.612 94.3101 29.248 94.5528 28.8C94.8141 28.3333 94.9448 27.8293 94.9448 27.288ZM85.6768 15.836V21.688H91.4448C91.9674 21.688 92.4341 21.5667 92.8448 21.324C93.2554 21.0627 93.5821 20.7173 93.8248 20.288C94.0674 19.84 94.1888 19.336 94.1888 18.776C94.1888 18.1973 94.0768 17.6933 93.8528 17.264C93.6288 16.816 93.3208 16.4707 92.9288 16.228C92.5554 15.9667 92.1168 15.836 91.6128 15.836H85.6768ZM107.623 33.28C106.466 33.28 105.43 33.084 104.515 32.692C103.601 32.2813 102.807 31.7213 102.135 31.012C101.482 30.3027 100.978 29.5 100.623 28.604C100.269 27.6893 100.091 26.7187 100.091 25.692C100.091 24.6653 100.269 23.6947 100.623 22.78C100.978 21.8653 101.482 21.0627 102.135 20.372C102.807 19.6627 103.601 19.112 104.515 18.72C105.449 18.3093 106.485 18.104 107.623 18.104C108.762 18.104 109.789 18.3093 110.703 18.72C111.637 19.112 112.43 19.6627 113.083 20.372C113.755 21.0627 114.269 21.8653 114.623 22.78C114.978 23.6947 115.155 24.6653 115.155 25.692C115.155 26.7187 114.978 27.6893 114.623 28.604C114.269 29.5 113.755 30.3027 113.083 31.012C112.43 31.7213 111.637 32.2813 110.703 32.692C109.789 33.084 108.762 33.28 107.623 33.28ZM103.255 25.72C103.255 26.6533 103.451 27.4933 103.843 28.24C104.235 28.9867 104.758 29.5747 105.411 30.004C106.065 30.4333 106.802 30.648 107.623 30.648C108.426 30.648 109.154 30.4333 109.807 30.004C110.479 29.556 111.011 28.9587 111.403 28.212C111.795 27.4467 111.991 26.6067 111.991 25.692C111.991 24.7587 111.795 23.9187 111.403 23.172C111.011 22.4253 110.479 21.8373 109.807 21.408C109.154 20.96 108.426 20.736 107.623 20.736C106.802 20.736 106.065 20.96 105.411 21.408C104.758 21.856 104.235 22.4533 103.843 23.2C103.451 23.928 103.255 24.768 103.255 25.72ZM116.823 28.716C116.823 27.7827 117.084 26.9707 117.607 26.28C118.148 25.5707 118.886 25.0293 119.819 24.656C120.752 24.264 121.835 24.068 123.067 24.068C123.72 24.068 124.383 24.1147 125.055 24.208C125.746 24.3013 126.352 24.4507 126.875 24.656V23.732C126.875 22.7053 126.567 21.9027 125.951 21.324C125.335 20.7453 124.448 20.456 123.291 20.456C122.47 20.456 121.695 20.6053 120.967 20.904C120.239 21.184 119.464 21.5853 118.643 22.108L117.607 20.036C118.578 19.3827 119.548 18.8973 120.519 18.58C121.508 18.2627 122.544 18.104 123.627 18.104C125.587 18.104 127.127 18.6267 128.247 19.672C129.386 20.6987 129.955 22.164 129.955 24.068V29.528C129.955 29.8827 130.011 30.1347 130.123 30.284C130.254 30.4333 130.468 30.5173 130.767 30.536V33C130.487 33.056 130.235 33.0933 130.011 33.112C129.787 33.1307 129.6 33.14 129.451 33.14C128.798 33.14 128.303 32.9813 127.967 32.664C127.631 32.3467 127.435 31.9733 127.379 31.544L127.295 30.704C126.66 31.5253 125.848 32.16 124.859 32.608C123.87 33.056 122.871 33.28 121.863 33.28C120.892 33.28 120.024 33.084 119.259 32.692C118.494 32.2813 117.896 31.7307 117.467 31.04C117.038 30.3493 116.823 29.5747 116.823 28.716ZM126.147 29.612C126.371 29.3693 126.548 29.1267 126.679 28.884C126.81 28.6413 126.875 28.4267 126.875 28.24V26.56C126.352 26.3547 125.802 26.2053 125.223 26.112C124.644 26 124.075 25.944 123.515 25.944C122.395 25.944 121.48 26.168 120.771 26.616C120.08 27.064 119.735 27.68 119.735 28.464C119.735 28.8933 119.847 29.304 120.071 29.696C120.314 30.088 120.65 30.4053 121.079 30.648C121.527 30.8907 122.078 31.012 122.731 31.012C123.403 31.012 124.047 30.8813 124.663 30.62C125.279 30.3587 125.774 30.0227 126.147 29.612ZM141.924 21.016C140.729 21.0347 139.665 21.3053 138.732 21.828C137.817 22.3507 137.164 23.088 136.772 24.04V33H133.692V18.356H136.548V21.632C137.052 20.624 137.714 19.8213 138.536 19.224C139.357 18.608 140.225 18.272 141.14 18.216C141.326 18.216 141.476 18.216 141.588 18.216C141.718 18.216 141.83 18.2253 141.924 18.244V21.016ZM143.022 25.692C143.022 24.292 143.302 23.0227 143.862 21.884C144.44 20.7267 145.224 19.812 146.214 19.14C147.203 18.4493 148.342 18.104 149.63 18.104C150.75 18.104 151.758 18.3933 152.654 18.972C153.568 19.5507 154.278 20.2693 154.782 21.128V12.56H157.862V29.528C157.862 29.8827 157.927 30.1347 158.058 30.284C158.188 30.4333 158.403 30.5173 158.702 30.536V33C158.123 33.0933 157.675 33.14 157.358 33.14C156.779 33.14 156.284 32.972 155.874 32.636C155.482 32.3 155.276 31.8987 155.258 31.432L155.23 30.34C154.67 31.2733 153.914 32.0013 152.962 32.524C152.01 33.028 151.02 33.28 149.994 33.28C148.986 33.28 148.052 33.084 147.194 32.692C146.354 32.3 145.616 31.7493 144.982 31.04C144.366 30.3307 143.88 29.5187 143.526 28.604C143.19 27.6893 143.022 26.7187 143.022 25.692ZM154.782 27.736V23.9C154.576 23.3027 154.24 22.7707 153.774 22.304C153.326 21.8187 152.812 21.436 152.234 21.156C151.674 20.876 151.114 20.736 150.554 20.736C149.9 20.736 149.303 20.876 148.762 21.156C148.239 21.436 147.782 21.8093 147.39 22.276C147.016 22.7427 146.727 23.2747 146.522 23.872C146.316 24.4693 146.214 25.0947 146.214 25.748C146.214 26.42 146.326 27.0547 146.55 27.652C146.774 28.2307 147.091 28.7533 147.502 29.22C147.931 29.668 148.416 30.0227 148.958 30.284C149.518 30.5267 150.124 30.648 150.778 30.648C151.188 30.648 151.599 30.5733 152.01 30.424C152.439 30.2747 152.84 30.0693 153.214 29.808C153.606 29.5467 153.932 29.2387 154.194 28.884C154.474 28.5293 154.67 28.1467 154.782 27.736Z" fill="black"/>
</svg>
