<svg width="129" height="129" viewBox="0 0 129 129" fill="none" xmlns="http://www.w3.org/2000/svg">
<path d="M65.7642 20.7357C66.0242 20.7351 98.803 47.7039 98.803 47.7039C99.0434 47.9033 99.214 48.183 99.2747 48.4928L107.177 95.5757C107.359 96.4754 107.081 97.176 106.551 97.1771C106.351 97.1775 106.12 97.0881 105.86 96.8786L100.501 92.6203L98.7274 95.6841L89.5618 111.504L38.9219 111.614L29.6894 96.6844L27.4417 93.1393L22.5602 97.0499C22.3007 97.2705 22.0609 97.371 21.8609 97.3714C21.3309 97.3726 21.0594 96.6732 21.2374 95.7728L28.9349 48.6359C28.9942 48.3358 29.1636 48.0554 29.4032 47.8549C29.4032 47.8549 62.0742 20.7437 62.3142 20.7432L65.7642 20.7357M62.3033 15.7432C60.5034 15.7471 59.6748 16.4189 57.6883 18.0233C52.6414 22.1563 47.6037 26.3006 42.5753 30.4562C34.38 37.204 26.2147 43.9918 26.2147 43.9918C25.0458 44.9656 24.2647 46.3262 24.0131 47.8266L16.3155 94.9035C16.1207 95.8485 16.1344 96.8246 16.3558 97.7637C16.5772 98.7028 17.0009 99.5823 17.5974 100.341C18.1192 100.974 18.7751 101.484 19.5177 101.833C20.2603 102.183 21.0711 102.363 21.8918 102.361C22.8418 102.359 24.2912 102.106 25.7386 100.923L26.2078 100.542L34.6876 114.224C35.1347 114.951 35.7605 115.551 36.5053 115.968C37.2502 116.385 38.0893 116.604 38.9428 116.604L89.5827 116.494C90.4577 116.491 91.3166 116.259 92.0738 115.821C92.8309 115.382 93.4597 114.752 93.8973 113.995L101.937 100.127L102.738 100.765C103.813 101.668 105.169 102.167 106.572 102.177C108.242 102.173 109.8 101.43 110.867 100.138C111.459 99.3759 111.877 98.4942 112.092 97.5542C112.308 96.6141 112.316 95.6384 112.115 94.695L104.213 47.6521L104.193 47.5321C103.914 46.0839 103.14 44.7777 102.005 43.8369C92.7491 36.2303 83.4825 28.6371 74.2049 21.0573C67.6634 15.7516 67.6634 15.7516 65.8333 15.7255L62.3233 15.7332L62.3033 15.7432Z" fill="black"/>
<path d="M38.2456 113.166L27.859 96.3883L64.2868 67.759L100.847 95.3495L90.5854 113.052L38.2456 113.166Z" fill="#2B90ED"/>
<path d="M64.3007 69.6591L98.8875 95.7439L89.7219 111.554L39.072 111.664L29.8395 96.7442L64.2907 69.6591M64.2524 65.8592L62.4455 67.2931L27.9744 94.3882L25.878 96.0428L27.283 98.3197L36.5155 113.24L37.3986 114.668L91.4484 114.55L92.3052 113.058L101.481 97.2483L102.816 94.9453L100.692 93.35L66.1155 67.2552L64.2724 65.8592L64.2524 65.8592Z" fill="#753802"/>
<path d="M22.0247 98.9311C21.4047 98.9324 20.8341 98.6537 20.423 98.1646C19.9016 97.5257 19.7196 96.5961 19.9173 95.5356L27.6148 48.4488C27.7433 47.7585 28.092 47.1677 28.6111 46.7466C61.6815 19.3046 61.7115 19.3045 62.4715 19.3028L63.9715 19.2996L64.0698 64.4595C64.0716 65.3195 63.6934 66.1303 63.0245 66.6618L23.6533 98.2975C23.1442 98.7186 22.5947 98.9298 22.0247 98.9311V98.9311Z" fill="#2B90ED"/>
<path d="M62.4748 20.803L62.5699 64.4629C62.5707 64.8629 62.3916 65.2633 62.0721 65.514L22.7308 97.1097C22.4713 97.3302 22.2315 97.4207 22.0315 97.4212C21.5015 97.4223 21.23 96.7229 21.398 95.8225L29.0955 48.6957C29.1648 48.3955 29.3242 48.1052 29.5637 47.9047C29.5637 47.9047 62.2348 20.8035 62.4848 20.803M62.4783 17.803L62.4383 17.803C61.3083 17.8155 61.3083 17.8155 55.329 22.7185L44.0193 32.0432L27.6487 45.5988C26.8689 46.2461 26.3402 47.1458 26.1543 48.1421L26.1543 48.1721L26.1444 48.2121L18.4469 95.299C18.2947 95.9593 18.2909 96.6453 18.4359 97.3073C18.5809 97.9693 18.8709 98.5908 19.2852 99.1272C19.977 99.9557 20.978 100.423 22.038 100.421C22.668 100.42 23.6376 100.248 24.6359 99.4355L63.9672 67.8498C64.4731 67.4412 64.8807 66.924 65.1598 66.3366C65.4389 65.7493 65.5825 65.1066 65.5799 64.4563L65.4783 17.7964L62.4783 17.803V17.803Z" fill="#753802"/>
<path d="M106.715 98.7465C106.145 98.7477 105.594 98.5189 105.073 98.1001L65.585 66.6759C65.2526 66.4098 64.9843 66.0722 64.8 65.6884C64.6157 65.3045 64.52 64.8841 64.5202 64.4582L64.4219 19.3083L65.9419 19.295C66.6819 19.2934 67.0825 19.5926 99.9114 46.6012C100.422 47.0101 100.774 47.5993 100.905 48.259L108.808 95.3819C109.01 96.4015 108.832 97.3419 108.303 97.983C107.904 98.4639 107.335 98.7351 106.705 98.7365L106.715 98.7465Z" fill="#2B90ED"/>
<path d="M65.9252 20.7952C66.1752 20.7947 98.964 47.7534 98.964 47.7534C99.2044 47.9529 99.365 48.2325 99.4357 48.5424L107.338 95.6253C107.51 96.5349 107.242 97.2355 106.712 97.2367C106.512 97.2371 106.281 97.1376 106.011 96.9382L66.5325 65.494C66.212 65.2347 66.0311 64.8551 66.0302 64.4451L65.9352 20.7952M65.9287 17.7952L62.9287 17.8018L63.0303 64.4616C63.0331 65.7716 63.6158 67.0004 64.6376 67.8282L104.156 99.2822C105.138 100.08 106.098 100.238 106.728 100.237C107.788 100.234 108.787 99.7621 109.475 98.9306C109.885 98.393 110.17 97.7719 110.312 97.1114C110.454 96.4508 110.449 95.7671 110.297 95.1089L102.395 48.0459L102.394 47.9759C102.192 46.9764 101.66 46.0775 100.869 45.4393L84.4396 31.955C80.3322 28.5839 76.1949 25.2029 73.0894 22.6797C67.0787 17.7927 67.0787 17.7927 65.9187 17.7953L65.9287 17.7952Z" fill="#753802"/>
<path d="M70.0993 114.847L58.7093 114.871L57.7136 103.064C57.7117 101.95 58.0178 100.857 58.5981 99.9064C59.1784 98.9556 60.0104 98.1839 61.0019 97.6764C61.99 97.1699 63.0818 96.8988 64.192 96.8843C65.3022 96.8697 66.4007 97.1121 67.4017 97.5925L67.622 97.702C69.7041 98.6975 71.0287 100.815 71.0338 103.135L70.0993 114.837L70.0993 114.847Z" fill="black"/>
</svg>
