<svg width="129" height="129" viewBox="0 0 129 129" fill="none" xmlns="http://www.w3.org/2000/svg">
<path d="M65.7642 20.7352C66.0242 20.7346 98.803 47.7034 98.803 47.7034C99.0434 47.9028 99.214 48.1825 99.2747 48.4923L107.177 95.5753C107.359 96.4749 107.081 97.1755 106.551 97.1766C106.351 97.1771 106.12 97.0876 105.86 96.8781L100.501 92.6198L98.7274 95.6836L89.5618 111.504L38.9219 111.614L29.6894 96.6839L27.4417 93.1388L22.5602 97.0494C22.3007 97.27 22.0609 97.3705 21.8609 97.3709C21.3309 97.3721 21.0594 96.6727 21.2374 95.7723L28.9349 48.6354C28.9942 48.3353 29.1636 48.0549 29.4032 47.8544C29.4032 47.8544 62.0742 20.7432 62.3142 20.7427L65.7642 20.7352M62.3033 15.7427C60.5034 15.7466 59.6748 16.4185 57.6883 18.0228C52.6414 22.1558 47.6037 26.3001 42.5753 30.4557C34.38 37.2036 26.2147 43.9913 26.2147 43.9913C25.0458 44.9651 24.2647 46.3257 24.0131 47.8261L16.3155 94.903C16.1207 95.848 16.1344 96.8241 16.3558 97.7632C16.5772 98.7023 17.0009 99.5818 17.5974 100.34C18.1192 100.974 18.7751 101.483 19.5177 101.833C20.2603 102.182 21.0711 102.363 21.8918 102.361C22.8418 102.359 24.2912 102.106 25.7386 100.923L26.2078 100.541L34.6876 114.223C35.1347 114.95 35.7605 115.551 36.5053 115.967C37.2502 116.384 38.0893 116.603 38.9428 116.604L89.5827 116.494C90.4577 116.491 91.3166 116.259 92.0738 115.82C92.8309 115.382 93.4597 114.752 93.8973 113.994L101.937 100.127L102.738 100.765C103.813 101.667 105.169 102.166 106.572 102.177C108.242 102.173 109.8 101.43 110.867 100.137C111.459 99.3754 111.877 98.4937 112.092 97.5537C112.308 96.6137 112.316 95.6379 112.115 94.6945L104.213 47.6516L104.193 47.5316C103.914 46.0835 103.14 44.7772 102.005 43.8364C92.7491 36.2298 83.4825 28.6366 74.2049 21.0568C67.6634 15.7511 67.6634 15.7511 65.8333 15.725L62.3233 15.7327L62.3033 15.7427Z" fill="black"/>
<path d="M38.2456 113.165L27.859 96.3878L64.2868 67.7585L100.847 95.349L90.5854 113.051L38.2456 113.165Z" fill="url(#paint0_linear_321_912)"/>
<path d="M64.3007 69.6586L98.8875 95.7434L89.7219 111.553L39.072 111.664L29.8395 96.7437L64.2907 69.6586M64.2524 65.8587L62.4455 67.2927L27.9744 94.3877L25.878 96.0423L27.283 98.3193L36.5155 113.239L37.3986 114.667L91.4484 114.55L92.3052 113.058L101.481 97.2478L102.816 94.9449L100.692 93.3495L66.1155 67.2547L64.2724 65.8587L64.2524 65.8587Z" fill="#753802"/>
<path d="M22.0247 98.9306C21.4047 98.9319 20.8341 98.6532 20.423 98.1641C19.9016 97.5252 19.7196 96.5956 19.9173 95.5352L27.6148 48.4483C27.7433 47.758 28.092 47.1672 28.6111 46.7461C61.6815 19.3041 61.7115 19.304 62.4715 19.3024L63.9715 19.2991L64.0698 64.459C64.0716 65.319 63.6934 66.1298 63.0245 66.6613L23.6533 98.297C23.1442 98.7181 22.5947 98.9293 22.0247 98.9306V98.9306Z" fill="url(#paint1_linear_321_912)"/>
<path d="M62.4748 20.8025L62.5699 64.4624C62.5707 64.8624 62.3916 65.2628 62.0721 65.5135L22.7308 97.1092C22.4713 97.3297 22.2315 97.4203 22.0315 97.4207C21.5015 97.4218 21.23 96.7224 21.398 95.8221L29.0955 48.6952C29.1648 48.395 29.3242 48.1047 29.5637 47.9042C29.5637 47.9042 62.2348 20.803 62.4848 20.8025M62.4783 17.8025L62.4383 17.8026C61.3083 17.815 61.3083 17.815 55.329 22.718L44.0193 32.0427L27.6487 45.5983C26.8689 46.2456 26.3402 47.1454 26.1543 48.1416L26.1543 48.1716L26.1444 48.2116L18.4469 95.2985C18.2947 95.9589 18.2909 96.6448 18.4359 97.3068C18.5809 97.9688 18.8709 98.5903 19.2852 99.1267C19.977 99.9552 20.978 100.423 22.038 100.421C22.668 100.419 23.6376 100.247 24.6359 99.435L63.9672 67.8493C64.4731 67.4407 64.8807 66.9235 65.1598 66.3361C65.4389 65.7488 65.5825 65.1062 65.5799 64.4558L65.4783 17.7959L62.4783 17.8025V17.8025Z" fill="#753802"/>
<path d="M106.715 98.746C106.145 98.7472 105.594 98.5184 105.073 98.0996L65.585 66.6754C65.2526 66.4093 64.9843 66.0717 64.8 65.6879C64.6157 65.304 64.52 64.8836 64.5202 64.4577L64.4219 19.3079L65.9419 19.2945C66.6819 19.2929 67.0825 19.5921 99.9114 46.6007C100.422 47.0096 100.774 47.5988 100.905 48.2585L108.808 95.3814C109.01 96.401 108.832 97.3414 108.303 97.9825C107.904 98.4634 107.335 98.7346 106.705 98.736L106.715 98.746Z" fill="#FC1212"/>
<path d="M65.9252 20.7948C66.1752 20.7942 98.964 47.7529 98.964 47.7529C99.2044 47.9524 99.365 48.232 99.4357 48.5419L107.338 95.6248C107.51 96.5344 107.242 97.235 106.712 97.2362C106.512 97.2366 106.281 97.1371 106.011 96.9377L66.5325 65.4935C66.212 65.2342 66.0311 64.8546 66.0302 64.4446L65.9352 20.7947M65.9287 17.7947L62.9287 17.8013L63.0303 64.4612C63.0331 65.7712 63.6158 66.9999 64.6376 67.8277L104.156 99.2817C105.138 100.08 106.098 100.238 106.728 100.236C107.788 100.234 108.787 99.7617 109.475 98.9302C109.885 98.3926 110.17 97.7714 110.312 97.1109C110.454 96.4504 110.449 95.7666 110.297 95.1084L102.395 48.0455L102.394 47.9754C102.192 46.9759 101.66 46.077 100.869 45.4388L84.4396 31.9545C80.3322 28.5834 76.1949 25.2024 73.0894 22.6792C67.0787 17.7922 67.0787 17.7922 65.9187 17.7948L65.9287 17.7947Z" fill="#753802"/>
<path d="M70.0993 114.846L58.7093 114.871L57.7136 103.063C57.7117 101.949 58.0178 100.857 58.5981 99.9059C59.1784 98.9551 60.0104 98.1834 61.0019 97.6759C61.99 97.1694 63.0818 96.8983 64.192 96.8838C65.3022 96.8692 66.4007 97.1116 67.4017 97.592L67.622 97.7015C69.7041 98.697 71.0287 100.814 71.0338 103.134L70.0993 114.836L70.0993 114.846Z" fill="black"/>
<defs>
<linearGradient id="paint0_linear_321_912" x1="64.2968" y1="67.7585" x2="64.3955" y2="113.108" gradientUnits="userSpaceOnUse">
<stop offset="0.11" stop-color="#FC1212"/>
<stop offset="0.44" stop-color="#FC1212"/>
<stop offset="0.63" stop-color="#FC1212"/>
<stop offset="0.79" stop-color="#FC1212"/>
<stop offset="0.94" stop-color="#FC1212"/>
<stop offset="1" stop-color="#FC1212"/>
</linearGradient>
<linearGradient id="paint1_linear_321_912" x1="61.4215" y1="69.8448" x2="26.6079" y2="49.8505" gradientUnits="userSpaceOnUse">
<stop offset="0.11" stop-color="#FC1212"/>
<stop offset="0.24" stop-color="#FC1212"/>
<stop offset="0.34" stop-color="#FC1212"/>
<stop offset="0.485" stop-color="#FC1212"/>
<stop offset="0.58" stop-color="#FC1212"/>
<stop offset="0.83" stop-color="#FC1212"/>
<stop offset="1" stop-color="#FC1212"/>
</linearGradient>
</defs>
</svg>
